<svg xmlns="http://www.w3.org/2000/svg" width="1080" height="1080" viewBox="0 0 1080 1080">
  <defs>
    <linearGradient id="sky" x1="0" x2="1" y1="0" y2="1">
      <stop offset="0" stop-color="#dbeafe"/>
      <stop offset="1" stop-color="#ecfdf5"/>
    </linearGradient>
    <linearGradient id="grass" x1="0" x2="1">
      <stop offset="0" stop-color="#16a34a"/>
      <stop offset="1" stop-color="#84cc16"/>
    </linearGradient>
  </defs>
  <rect width="1080" height="1080" rx="72" fill="url(#sky)"/>
  <circle cx="870" cy="170" r="88" fill="#fde68a"/>
  <path d="M0 760 C190 680 340 840 540 750 C730 665 870 735 1080 660 L1080 1080 L0 1080 Z" fill="url(#grass)"/>
  <path d="M160 720 C260 680 350 680 450 720" fill="none" stroke="#14532d" stroke-width="18" stroke-linecap="round" opacity=".35"/>
  <path d="M650 710 C760 655 845 665 930 720" fill="none" stroke="#14532d" stroke-width="18" stroke-linecap="round" opacity=".35"/>

  <g transform="translate(210 420)">
    <ellipse cx="145" cy="210" rx="135" ry="105" fill="#f8fafc"/>
    <circle cx="95" cy="120" r="86" fill="#f8fafc"/>
    <path d="M35 72 C6 16 80 0 96 62" fill="#334155"/>
    <path d="M136 60 C172 5 234 40 174 94" fill="#334155"/>
    <circle cx="66" cy="118" r="12" fill="#0f172a"/>
    <circle cx="124" cy="118" r="12" fill="#0f172a"/>
    <ellipse cx="95" cy="150" rx="18" ry="13" fill="#0f172a"/>
    <path d="M80 172 C95 190 112 190 128 172" fill="none" stroke="#0f172a" stroke-width="8" stroke-linecap="round"/>
    <path d="M250 185 C345 125 375 215 282 245" fill="none" stroke="#f8fafc" stroke-width="34" stroke-linecap="round"/>
  </g>

  <g transform="translate(565 465)">
    <ellipse cx="150" cy="200" rx="132" ry="95" fill="#fbbf24"/>
    <circle cx="105" cy="115" r="82" fill="#fbbf24"/>
    <path d="M46 70 C18 20 82 0 100 62" fill="#92400e"/>
    <path d="M136 62 C176 5 234 46 170 94" fill="#92400e"/>
    <circle cx="76" cy="112" r="11" fill="#111827"/>
    <circle cx="132" cy="112" r="11" fill="#111827"/>
    <ellipse cx="105" cy="145" rx="18" ry="12" fill="#111827"/>
    <path d="M88 168 C105 184 122 184 140 168" fill="none" stroke="#111827" stroke-width="8" stroke-linecap="round"/>
    <path d="M248 176 C330 110 370 205 292 245" fill="none" stroke="#fbbf24" stroke-width="32" stroke-linecap="round"/>
  </g>

  <circle cx="528" cy="725" r="54" fill="#2563eb"/>
  <path d="M502 716 L554 742 M552 714 L504 742" stroke="#ffffff" stroke-width="12" stroke-linecap="round"/>
  <rect x="245" y="870" width="590" height="92" rx="46" fill="rgba(15,23,42,.86)"/>
  <text x="540" y="930" text-anchor="middle" font-family="Arial, sans-serif" font-size="40" font-weight="700" fill="#ffffff">Encontro ficticio no Pet Place</text>
</svg>
